<?xml version="1.0" encoding="UTF-8"?>
<!DOCTYPE svg PUBLIC "-//W3C//DTD SVG 1.1//EN" "http://www.w3.org/Graphics/SVG/1.1/DTD/svg11.dtd">
<!-- Creator: CorelDRAW -->
<svg xmlns="http://www.w3.org/2000/svg" xml:space="preserve" width="0.567201in" height="0.567in" version="1.1" style="shape-rendering:geometricPrecision; text-rendering:geometricPrecision; image-rendering:optimizeQuality; fill-rule:evenodd; clip-rule:evenodd"
viewBox="0 0 567.2 567"
 xmlns:xlink="http://www.w3.org/1999/xlink"
 xmlns:xodm="http://www.corel.com/coreldraw/odm/2003">
 <defs>
  <style type="text/css">
   <![CDATA[
    .fil2 {fill:none}
    .fil0 {fill:#AEE42B}
    .fil1 {fill:url(#id1)}
   ]]>
  </style>
   <clipPath id="id0">
    <path d="M104.13 530.44l0 36.56 36.56 0 1.11 -45.42c3.55,0.08 5.54,-0.36 5.54,3.32l0 42.1 96.38 0 0 -45.42c4.26,-0.9 6.65,-0.76 6.65,5.54l0 39.88 72.01 0 1.08 -41.13c1.06,-7.22 5.56,-2.97 5.56,0.14l0 40.99 96.38 0 0 -40.99c0,-2.96 1.6,-3.28 3.32,-4.43 2.24,1.64 3.32,2.54 3.32,6.65l0 38.78 36.56 0c0,-36.66 5.82,-65.79 -26.02,-81.44 -5.18,-2.54 -13.2,-3.87 -20.5,-3.87l-89.73 0c-13.34,0 -24.92,5.39 -32.03,12.29l-1.1 1.11c-6.91,7.22 -12.29,15.27 -12.29,26.48l-1.11 0c0,-23.89 -20.53,-40.99 -46.53,-40.99l-86.41 0c-30.39,0 -48.74,19.81 -48.74,49.85zm128.51 -404.35c6.67,-1.56 13.21,-9.33 25.48,-12.18l0 -70.9 247.04 0 0 177.25 -247.04 0 0 -28.81c-5.22,1.4 -19.64,13.04 -25.48,14.4 0,14.85 -3.79,38.78 11.08,38.78l276.95 0c5.93,0 9.97,-8.36 9.97,-16.62l0 -192.76c0,-13.62 -6.35,-17.72 -19.94,-17.72l-260.33 0c-23.37,0 -17.72,19.83 -17.72,45.42 0,21.05 0,42.1 0,63.15zm-232.64 329.02l0 36.56 36.56 0c0,-11.82 -1.29,-35.13 1.11,-45.42l5.54 0c2.4,10.3 1.11,33.6 1.11,45.42l48.74 0c3.17,0 3.93,-2.48 5.42,-4.55 5.62,-7.85 6.45,-8.47 15.39,-14.52 8.21,-5.55 17.78,-9.73 31.26,-9.73 -1.53,-6.57 -16.25,-29.97 -2.22,-56.5 -31.75,0 -63.53,0.12 -95.27,-0 -9.11,-0.03 -13.63,0.16 -20.29,2.98 -18.42,7.81 -27.34,23.26 -27.34,45.77zm435.37 -27.7c0,16.43 -0.04,20.87 -7.75,35.45 10.35,0 23.67,5.17 30.58,9.3 16.05,9.61 16.69,19.5 21.49,19.5l43.2 0 0 -40.99c0,-3.37 1.92,-3.76 4.43,-4.43 2.24,1.64 3.32,2.54 3.32,6.65l0 38.78 36.56 0 0 -37.67c0,-27.49 -17.65,-46.94 -44.28,-47.67 -30.5,-0.84 -62.42,0.04 -93.09,0.04 1.63,6.97 5.54,11.71 5.54,21.05zm-185 2.22c0,22.65 -5.41,22.07 -7.76,32.13 13.72,0 25.18,4.47 35.26,11.28 4.14,2.8 5.47,5.16 9.06,7.56 8.3,-4.39 11.98,-11.65 29.63,-15.79 3.81,-0.89 9.28,-0.93 13.58,-1.93 -1.57,-6.75 -12.41,-21.33 -5.95,-44.72 1.27,-4.61 3.37,-7.46 3.73,-11.78l-83.09 0c1.58,6.79 5.54,10.93 5.54,23.26zm-59.82 39.88l8.86 0c15.22,0 33.24,-18.02 33.24,-33.23 0,-11.65 -0.13,-19.13 -8.06,-28.5 -28.06,-33.13 -80.07,-2.96 -65.23,37.53 2.53,6.91 6.37,11.74 11.56,16.13 4.01,3.4 12.74,8.06 19.63,8.06zm150.66 -40.99c0,12.67 1.15,21.18 10.2,30.78 24.34,25.82 71.35,5.81 64.85,-33.81 -4.44,-27.11 -42.01,-44.52 -66.48,-17.2 -3.64,4.06 -8.58,13.02 -8.58,20.22zm-85.3 -75.33c0,13.56 0.94,21.17 12.44,31.87 32.73,30.45 85.59,-15.23 52.62,-53.73 -6.36,-7.43 -15.72,-10.9 -25.79,-11.89 -9.68,-0.96 -20.85,3.77 -26.29,9.07 -5.57,5.43 -12.98,14.31 -12.98,24.68zm-201.62 0c0,14.39 0.8,20.29 12.43,31.88 15.26,15.19 47.22,13.14 59.24,-12.27 8.91,-18.84 -0.38,-41.61 -17.37,-49.55 -4.35,-2.03 -8.71,-3.19 -15.04,-3.81 -14.56,-1.42 -29.56,8.8 -34.9,19.3 -1.65,3.24 -4.38,9.59 -4.38,14.45zm383.3 4.43c0,30.7 37.37,50.39 63.15,27.7 31.05,-27.33 -1.36,-81.3 -42.52,-61.35l-8.35 6.06c-0.16,0.16 -0.4,0.39 -0.56,0.55 -6.13,6.15 -11.73,15.78 -11.73,27.05zm-305.75 -286.92c8.21,0 10.27,0.13 18.5,-3.66 10.91,-5.04 20.19,-18.51 20.18,-31.78 -0.03,-44.72 -69.03,-48.93 -71.59,-0.89 -0.98,18.35 16.44,36.33 32.91,36.33zm13.3 55.39c0.23,-10.52 7.33,-9.59 -5.54,-28.8 6.31,-11.94 10.31,-14.68 2.36,-15.59 -1.06,-0.12 -12.52,-0.13 -13.57,-0.01 -11.81,1.35 2.63,10.02 0.56,17.03 -0.7,2.38 -3.47,6.65 -4.68,8.76 -4.46,7.81 0.15,12.67 0.93,21.94 -2.01,-2.31 -1.45,-1.69 -2.67,-5.09l-16.17 -42.55c-21.29,0 -44.06,-1.07 -54.63,24.03 -2.57,6.1 -4.12,14.18 -4.13,22.46 -0.04,35.46 0.04,70.92 0.04,106.39 -0,9.94 -0.98,17.52 3.24,23.34 3.31,4.56 10.7,8.5 19.39,5.94 15.88,-4.67 11.71,-24.48 11.71,-41.48l-0.05 -39.92c0.07,-5.97 1.02,-6.53 1.19,-12.11l-0.06 -39.94c-0.07,-5.94 -1.2,-8.54 2.24,-11.06 5.41,1.44 3.32,4.18 3.32,18.83l0 161.74c27.78,0 35.39,12.61 42.1,14.4l0 -68.68 7.75 0c0,11.78 -1.39,73.07 0.46,79.3 1.59,5.34 17.82,23.03 4.62,55.39 -1.35,3.31 -2.05,3.63 -2.86,7.11 5.51,0 8.93,0.53 12.55,0.87 5.19,0.48 5.76,-1.42 9,-3.69 9.55,-6.66 12.5,-5.47 18.33,-8.26l0 -231.53c0,-26.93 -3.36,-25.48 5.54,-25.48 0,11.29 -1.11,30.35 0.3,40.68 2.07,15.13 -5.4,45.65 21.6,41.07 5.45,-0.92 21.5,-11.76 26.84,-15.29l25.26 -15.72c2.35,-1.48 3.74,-2.16 6.2,-3.77 6.88,-4.51 13.77,-6.84 15.47,-16.75 1.37,-8.03 -5.57,-31.04 -33.86,-12.72l-26.37 15.72c0,-25 3.52,-58.39 -27.53,-68.85 -8.73,-2.94 -19.44,-2.05 -31.18,-2.05 -0.37,4.44 -6.39,17.63 -8.39,22.63 -1.7,4.24 -2.75,6.86 -4.43,11.07 -0.98,2.46 -1.22,3.2 -2.18,5.58 -0.33,0.82 -0.57,1.52 -0.98,2.34 -1.34,2.63 -0.41,1.15 -1.74,2.69zm138.48 -7.76c2.53,3.78 9.2,6.34 11.08,14.4 4.79,-1.28 30.45,-23.07 36.54,-27.7 3.43,-2.61 9.98,-6.33 9.98,-12.18 0,-5.47 -4.5,-9.97 -9.97,-9.97 -5.17,0 -19.81,13.05 -24.37,16.62l-23.26 18.83z"/>
   </clipPath>
  <linearGradient id="id1" gradientUnits="userSpaceOnUse" x1="283.6" y1="-55.13" x2="283.6" y2="622.12">
   <stop offset="0" style="stop-opacity:1; stop-color:#62C8D2"/>
   <stop offset="1" style="stop-opacity:1; stop-color:#3A61AB"/>
  </linearGradient>
 </defs>
 <g id="Layer_x0020_1">
  <metadata id="CorelCorpID_0Corel-Layer"/>
  <path class="fil0" d="M104.13 530.44l0 36.56 36.56 0 1.11 -45.42c3.55,0.08 5.54,-0.36 5.54,3.32l0 42.1 96.38 0 0 -45.42c4.26,-0.9 6.65,-0.76 6.65,5.54l0 39.88 72.01 0 1.08 -41.13c1.06,-7.22 5.56,-2.97 5.56,0.14l0 40.99 96.38 0 0 -40.99c0,-2.96 1.6,-3.28 3.32,-4.43 2.24,1.64 3.32,2.54 3.32,6.65l0 38.78 36.56 0c0,-36.66 5.82,-65.79 -26.02,-81.44 -5.18,-2.54 -13.2,-3.87 -20.5,-3.87l-89.73 0c-13.34,0 -24.92,5.39 -32.03,12.29l-1.1 1.11c-6.91,7.22 -12.29,15.27 -12.29,26.48l-1.11 0c0,-23.89 -20.53,-40.99 -46.53,-40.99l-86.41 0c-30.39,0 -48.74,19.81 -48.74,49.85zm128.51 -404.35c6.67,-1.56 13.21,-9.33 25.48,-12.18l0 -70.9 247.04 0 0 177.25 -247.04 0 0 -28.81c-5.22,1.4 -19.64,13.04 -25.48,14.4 0,14.85 -3.79,38.78 11.08,38.78l276.95 0c5.93,0 9.97,-8.36 9.97,-16.62l0 -192.76c0,-13.62 -6.35,-17.72 -19.94,-17.72l-260.33 0c-23.37,0 -17.72,19.83 -17.72,45.42 0,21.05 0,42.1 0,63.15zm-232.64 329.02l0 36.56 36.56 0c0,-11.82 -1.29,-35.13 1.11,-45.42l5.54 0c2.4,10.3 1.11,33.6 1.11,45.42l48.74 0c3.17,0 3.93,-2.48 5.42,-4.55 5.62,-7.85 6.45,-8.47 15.39,-14.52 8.21,-5.55 17.78,-9.73 31.26,-9.73 -1.53,-6.57 -16.25,-29.97 -2.22,-56.5 -31.75,0 -63.53,0.12 -95.27,-0 -9.11,-0.03 -13.63,0.16 -20.29,2.98 -18.42,7.81 -27.34,23.26 -27.34,45.77zm435.37 -27.7c0,16.43 -0.04,20.87 -7.75,35.45 10.35,0 23.67,5.17 30.58,9.3 16.05,9.61 16.69,19.5 21.49,19.5l43.2 0 0 -40.99c0,-3.37 1.92,-3.76 4.43,-4.43 2.24,1.64 3.32,2.54 3.32,6.65l0 38.78 36.56 0 0 -37.67c0,-27.49 -17.65,-46.94 -44.28,-47.67 -30.5,-0.84 -62.42,0.04 -93.09,0.04 1.63,6.97 5.54,11.71 5.54,21.05zm-185 2.22c0,22.65 -5.41,22.07 -7.76,32.13 13.72,0 25.18,4.47 35.26,11.28 4.14,2.8 5.47,5.16 9.06,7.56 8.3,-4.39 11.98,-11.65 29.63,-15.79 3.81,-0.89 9.28,-0.93 13.58,-1.93 -1.57,-6.75 -12.41,-21.33 -5.95,-44.72 1.27,-4.61 3.37,-7.46 3.73,-11.78l-83.09 0c1.58,6.79 5.54,10.93 5.54,23.26zm-59.82 39.88l8.86 0c15.22,0 33.24,-18.02 33.24,-33.23 0,-11.65 -0.13,-19.13 -8.06,-28.5 -28.06,-33.13 -80.07,-2.96 -65.23,37.53 2.53,6.91 6.37,11.74 11.56,16.13 4.01,3.4 12.74,8.06 19.63,8.06zm150.66 -40.99c0,12.67 1.15,21.18 10.2,30.78 24.34,25.82 71.35,5.81 64.85,-33.81 -4.44,-27.11 -42.01,-44.52 -66.48,-17.2 -3.64,4.06 -8.58,13.02 -8.58,20.22zm-85.3 -75.33c0,13.56 0.94,21.17 12.44,31.87 32.73,30.45 85.59,-15.23 52.62,-53.73 -6.36,-7.43 -15.72,-10.9 -25.79,-11.89 -9.68,-0.96 -20.85,3.77 -26.29,9.07 -5.57,5.43 -12.98,14.31 -12.98,24.68zm-201.62 0c0,14.39 0.8,20.29 12.43,31.88 15.26,15.19 47.22,13.14 59.24,-12.27 8.91,-18.84 -0.38,-41.61 -17.37,-49.55 -4.35,-2.03 -8.71,-3.19 -15.04,-3.81 -14.56,-1.42 -29.56,8.8 -34.9,19.3 -1.65,3.24 -4.38,9.59 -4.38,14.45zm383.3 4.43c0,30.7 37.37,50.39 63.15,27.7 31.05,-27.33 -1.36,-81.3 -42.52,-61.35l-8.35 6.06c-0.16,0.16 -0.4,0.39 -0.56,0.55 -6.13,6.15 -11.73,15.78 -11.73,27.05zm-305.75 -286.92c8.21,0 10.27,0.13 18.5,-3.66 10.91,-5.04 20.19,-18.51 20.18,-31.78 -0.03,-44.72 -69.03,-48.93 -71.59,-0.89 -0.98,18.35 16.44,36.33 32.91,36.33zm13.3 55.39c0.23,-10.52 7.33,-9.59 -5.54,-28.8 6.31,-11.94 10.31,-14.68 2.36,-15.59 -1.06,-0.12 -12.52,-0.13 -13.57,-0.01 -11.81,1.35 2.63,10.02 0.56,17.03 -0.7,2.38 -3.47,6.65 -4.68,8.76 -4.46,7.81 0.15,12.67 0.93,21.94 -2.01,-2.31 -1.45,-1.69 -2.67,-5.09l-16.17 -42.55c-21.29,0 -44.06,-1.07 -54.63,24.03 -2.57,6.1 -4.12,14.18 -4.13,22.46 -0.04,35.46 0.04,70.92 0.04,106.39 -0,9.94 -0.98,17.52 3.24,23.34 3.31,4.56 10.7,8.5 19.39,5.94 15.88,-4.67 11.71,-24.48 11.71,-41.48l-0.05 -39.92c0.07,-5.97 1.02,-6.53 1.19,-12.11l-0.06 -39.94c-0.07,-5.94 -1.2,-8.54 2.24,-11.06 5.41,1.44 3.32,4.18 3.32,18.83l0 161.74c27.78,0 35.39,12.61 42.1,14.4l0 -68.68 7.75 0c0,11.78 -1.39,73.07 0.46,79.3 1.59,5.34 17.82,23.03 4.62,55.39 -1.35,3.31 -2.05,3.63 -2.86,7.11 5.51,0 8.93,0.53 12.55,0.87 5.19,0.48 5.76,-1.42 9,-3.69 9.55,-6.66 12.5,-5.47 18.33,-8.26l0 -231.53c0,-26.93 -3.36,-25.48 5.54,-25.48 0,11.29 -1.11,30.35 0.3,40.68 2.07,15.13 -5.4,45.65 21.6,41.07 5.45,-0.92 21.5,-11.76 26.84,-15.29l25.26 -15.72c2.35,-1.48 3.74,-2.16 6.2,-3.77 6.88,-4.51 13.77,-6.84 15.47,-16.75 1.37,-8.03 -5.57,-31.04 -33.86,-12.72l-26.37 15.72c0,-25 3.52,-58.39 -27.53,-68.85 -8.73,-2.94 -19.44,-2.05 -31.18,-2.05 -0.37,4.44 -6.39,17.63 -8.39,22.63 -1.7,4.24 -2.75,6.86 -4.43,11.07 -0.98,2.46 -1.22,3.2 -2.18,5.58 -0.33,0.82 -0.57,1.52 -0.98,2.34 -1.34,2.63 -0.41,1.15 -1.74,2.69zm138.48 -7.76c2.53,3.78 9.2,6.34 11.08,14.4 4.79,-1.28 30.45,-23.07 36.54,-27.7 3.43,-2.61 9.98,-6.33 9.98,-12.18 0,-5.47 -4.5,-9.97 -9.97,-9.97 -5.17,0 -19.81,13.05 -24.37,16.62l-23.26 18.83z"/>
  <g style="clip-path:url(#id0)">
   <g id="_2549651489072">
    <path id="_1" class="fil1" d="M-6.61 556.05l0 -545.11c0,-36.49 45.71,-66.07 102.08,-66.07l376.27 0c56.39,0 102.08,29.58 102.08,66.07l0 545.11c0,36.49 -45.69,66.07 -102.08,66.07l-376.27 0c-56.37,0 -102.08,-29.59 -102.08,-66.07z"/>
   </g>
  </g>
  <path class="fil2" d="M104.13 530.44l0 36.56 36.56 0 1.11 -45.42c3.55,0.08 5.54,-0.36 5.54,3.32l0 42.1 96.38 0 0 -45.42c4.26,-0.9 6.65,-0.76 6.65,5.54l0 39.88 72.01 0 1.08 -41.13c1.06,-7.22 5.56,-2.97 5.56,0.14l0 40.99 96.38 0 0 -40.99c0,-2.96 1.6,-3.28 3.32,-4.43 2.24,1.64 3.32,2.54 3.32,6.65l0 38.78 36.56 0c0,-36.66 5.82,-65.79 -26.02,-81.44 -5.18,-2.54 -13.2,-3.87 -20.5,-3.87l-89.73 0c-13.34,0 -24.92,5.39 -32.03,12.29l-1.1 1.11c-6.91,7.22 -12.29,15.27 -12.29,26.48l-1.11 0c0,-23.89 -20.53,-40.99 -46.53,-40.99l-86.41 0c-30.39,0 -48.74,19.81 -48.74,49.85zm128.51 -404.35c6.67,-1.56 13.21,-9.33 25.48,-12.18l0 -70.9 247.04 0 0 177.25 -247.04 0 0 -28.81c-5.22,1.4 -19.64,13.04 -25.48,14.4 0,14.85 -3.79,38.78 11.08,38.78l276.95 0c5.93,0 9.97,-8.36 9.97,-16.62l0 -192.76c0,-13.62 -6.35,-17.72 -19.94,-17.72l-260.33 0c-23.37,0 -17.72,19.83 -17.72,45.42 0,21.05 0,42.1 0,63.15zm-232.64 329.02l0 36.56 36.56 0c0,-11.82 -1.29,-35.13 1.11,-45.42l5.54 0c2.4,10.3 1.11,33.6 1.11,45.42l48.74 0c3.17,0 3.93,-2.48 5.42,-4.55 5.62,-7.85 6.45,-8.47 15.39,-14.52 8.21,-5.55 17.78,-9.73 31.26,-9.73 -1.53,-6.57 -16.25,-29.97 -2.22,-56.5 -31.75,0 -63.53,0.12 -95.27,-0 -9.11,-0.03 -13.63,0.16 -20.29,2.98 -18.42,7.81 -27.34,23.26 -27.34,45.77zm435.37 -27.7c0,16.43 -0.04,20.87 -7.75,35.45 10.35,0 23.67,5.17 30.58,9.3 16.05,9.61 16.69,19.5 21.49,19.5l43.2 0 0 -40.99c0,-3.37 1.92,-3.76 4.43,-4.43 2.24,1.64 3.32,2.54 3.32,6.65l0 38.78 36.56 0 0 -37.67c0,-27.49 -17.65,-46.94 -44.28,-47.67 -30.5,-0.84 -62.42,0.04 -93.09,0.04 1.63,6.97 5.54,11.71 5.54,21.05zm-185 2.22c0,22.65 -5.41,22.07 -7.76,32.13 13.72,0 25.18,4.47 35.26,11.28 4.14,2.8 5.47,5.16 9.06,7.56 8.3,-4.39 11.98,-11.65 29.63,-15.79 3.81,-0.89 9.28,-0.93 13.58,-1.93 -1.57,-6.75 -12.41,-21.33 -5.95,-44.72 1.27,-4.61 3.37,-7.46 3.73,-11.78l-83.09 0c1.58,6.79 5.54,10.93 5.54,23.26zm-59.82 39.88l8.86 0c15.22,0 33.24,-18.02 33.24,-33.23 0,-11.65 -0.13,-19.13 -8.06,-28.5 -28.06,-33.13 -80.07,-2.96 -65.23,37.53 2.53,6.91 6.37,11.74 11.56,16.13 4.01,3.4 12.74,8.06 19.63,8.06zm150.66 -40.99c0,12.67 1.15,21.18 10.2,30.78 24.34,25.82 71.35,5.81 64.85,-33.81 -4.44,-27.11 -42.01,-44.52 -66.48,-17.2 -3.64,4.06 -8.58,13.02 -8.58,20.22zm-85.3 -75.33c0,13.56 0.94,21.17 12.44,31.87 32.73,30.45 85.59,-15.23 52.62,-53.73 -6.36,-7.43 -15.72,-10.9 -25.79,-11.89 -9.68,-0.96 -20.85,3.77 -26.29,9.07 -5.57,5.43 -12.98,14.31 -12.98,24.68zm-201.62 0c0,14.39 0.8,20.29 12.43,31.88 15.26,15.19 47.22,13.14 59.24,-12.27 8.91,-18.84 -0.38,-41.61 -17.37,-49.55 -4.35,-2.03 -8.71,-3.19 -15.04,-3.81 -14.56,-1.42 -29.56,8.8 -34.9,19.3 -1.65,3.24 -4.38,9.59 -4.38,14.45zm383.3 4.43c0,30.7 37.37,50.39 63.15,27.7 31.05,-27.33 -1.36,-81.3 -42.52,-61.35l-8.35 6.06c-0.16,0.16 -0.4,0.39 -0.56,0.55 -6.13,6.15 -11.73,15.78 -11.73,27.05zm-305.75 -286.92c8.21,0 10.27,0.13 18.5,-3.66 10.91,-5.04 20.19,-18.51 20.18,-31.78 -0.03,-44.72 -69.03,-48.93 -71.59,-0.89 -0.98,18.35 16.44,36.33 32.91,36.33zm13.3 55.39c0.23,-10.52 7.33,-9.59 -5.54,-28.8 6.31,-11.94 10.31,-14.68 2.36,-15.59 -1.06,-0.12 -12.52,-0.13 -13.57,-0.01 -11.81,1.35 2.63,10.02 0.56,17.03 -0.7,2.38 -3.47,6.65 -4.68,8.76 -4.46,7.81 0.15,12.67 0.93,21.94 -2.01,-2.31 -1.45,-1.69 -2.67,-5.09l-16.17 -42.55c-21.29,0 -44.06,-1.07 -54.63,24.03 -2.57,6.1 -4.12,14.18 -4.13,22.46 -0.04,35.46 0.04,70.92 0.04,106.39 -0,9.94 -0.98,17.52 3.24,23.34 3.31,4.56 10.7,8.5 19.39,5.94 15.88,-4.67 11.71,-24.48 11.71,-41.48l-0.05 -39.92c0.07,-5.97 1.02,-6.53 1.19,-12.11l-0.06 -39.94c-0.07,-5.94 -1.2,-8.54 2.24,-11.06 5.41,1.44 3.32,4.18 3.32,18.83l0 161.74c27.78,0 35.39,12.61 42.1,14.4l0 -68.68 7.75 0c0,11.78 -1.39,73.07 0.46,79.3 1.59,5.34 17.82,23.03 4.62,55.39 -1.35,3.31 -2.05,3.63 -2.86,7.11 5.51,0 8.93,0.53 12.55,0.87 5.19,0.48 5.76,-1.42 9,-3.69 9.55,-6.66 12.5,-5.47 18.33,-8.26l0 -231.53c0,-26.93 -3.36,-25.48 5.54,-25.48 0,11.29 -1.11,30.35 0.3,40.68 2.07,15.13 -5.4,45.65 21.6,41.07 5.45,-0.92 21.5,-11.76 26.84,-15.29l25.26 -15.72c2.35,-1.48 3.74,-2.16 6.2,-3.77 6.88,-4.51 13.77,-6.84 15.47,-16.75 1.37,-8.03 -5.57,-31.04 -33.86,-12.72l-26.37 15.72c0,-25 3.52,-58.39 -27.53,-68.85 -8.73,-2.94 -19.44,-2.05 -31.18,-2.05 -0.37,4.44 -6.39,17.63 -8.39,22.63 -1.7,4.24 -2.75,6.86 -4.43,11.07 -0.98,2.46 -1.22,3.2 -2.18,5.58 -0.33,0.82 -0.57,1.52 -0.98,2.34 -1.34,2.63 -0.41,1.15 -1.74,2.69zm138.48 -7.76c2.53,3.78 9.2,6.34 11.08,14.4 4.79,-1.28 30.45,-23.07 36.54,-27.7 3.43,-2.61 9.98,-6.33 9.98,-12.18 0,-5.47 -4.5,-9.97 -9.97,-9.97 -5.17,0 -19.81,13.05 -24.37,16.62l-23.26 18.83z"/>
 </g>
</svg>
