<?xml version="1.0" encoding="UTF-8"?>
<!DOCTYPE svg PUBLIC "-//W3C//DTD SVG 1.1//EN" "http://www.w3.org/Graphics/SVG/1.1/DTD/svg11.dtd">
<!-- Creator: CorelDRAW -->
<svg xmlns="http://www.w3.org/2000/svg" xml:space="preserve" width="0.572083in" height="0.520547in" version="1.1" style="shape-rendering:geometricPrecision; text-rendering:geometricPrecision; image-rendering:optimizeQuality; fill-rule:evenodd; clip-rule:evenodd"
viewBox="0 0 572.09 520.55"
 xmlns:xlink="http://www.w3.org/1999/xlink"
 xmlns:xodm="http://www.corel.com/coreldraw/odm/2003">
 <defs>
  <style type="text/css">
   <![CDATA[
    .fil3 {fill:none}
    .fil1 {fill:#00CCFF}
    .fil0 {fill:#1F4470}
    .fil5 {fill:#A3D3FD}
    .fil4 {fill:#CCFF66}
    .fil2 {fill:url(#id1)}
   ]]>
  </style>
    <clipPath id="id0">
     <path d="M72.3 67.77c5.92,0 305.59,-1.49 315.8,0.72 13.2,2.86 22.79,13.5 23.59,28.97l0.04 106.03c-1.4,39.3 -43.85,30.81 -73.87,30.81 -88.51,0 -177.02,0 -265.54,0l0.01 263.14 369.67 -0 0.22 -123.98c-8.67,14.24 -6.88,12.3 -19.32,20.97 -8.24,5.74 -56.65,40.79 -62.81,41.15 -6.19,0.37 -11.11,-4.09 -11.79,-9.42 -1.23,-9.74 6.42,-60.22 7.94,-74.02 1.5,-13.67 6.14,-18.98 12.1,-28.98l68.57 -118.76c3.69,-6.5 5.36,-6.56 5.35,-15.39 -0.04,-29.41 1.48,-147.02 -0.27,-165.53l-369.25 -0.29 -0.45 44.58z"/>
    </clipPath>
  <linearGradient id="id1" gradientUnits="userSpaceOnUse" x1="257.58" y1="137.17" x2="257.58" y2="533.02">
   <stop offset="0" style="stop-opacity:1; stop-color:#C9DF8C"/>
   <stop offset="1" style="stop-opacity:1; stop-color:#5BBF93"/>
  </linearGradient>
 </defs>
 <g id="Layer_x0020_1">
  <metadata id="CorelCorpID_0Corel-Layer"/>
  <g id="_2549663517776">
   <path class="fil0" d="M-0 91.48l0 117.78c5.83,11.33 4.87,15.4 16.1,21.55 9.41,5.15 22.35,3.05 33.95,3.65l0 257.79c-0,35.59 -1.87,27.51 82.64,27.51l295.49 0c39.83,0 36.37,3.39 36.37,-36.43l0.06 -147.22c0.65,-5.72 46.62,-83.34 53.12,-94.4 7.78,-13.24 45.89,-76.47 51.29,-91.43 0.13,-0.35 0.51,-1.41 0.65,-1.75 11.96,-25.39 -22.73,-66.82 -59.84,-51.88 -22.96,9.25 -29.57,36.54 -42.29,54.69l-2.92 3.46 -0.07 -120.84c0,-10.93 3.05,-27.83 -6.54,-32.06 -4.93,-2.18 -286.08,-1.03 -316.4,-1.03 -95.84,0 -91.57,-8.45 -91.56,27.52 0,13.08 0,26.16 0,39.24 -11.33,0.59 -23.77,-1.49 -33.17,3.28 -12.78,6.48 -12.87,13.83 -16.88,20.58z"/>
   <path class="fil1" d="M72.3 67.77c5.92,0 305.59,-1.49 315.8,0.72 13.2,2.86 22.79,13.5 23.59,28.97l0.04 106.03c-1.4,39.3 -43.85,30.81 -73.87,30.81 -88.51,0 -177.02,0 -265.54,0l0.01 263.14 369.67 -0 0.22 -123.98c-8.67,14.24 -6.88,12.3 -19.32,20.97 -8.24,5.74 -56.65,40.79 -62.81,41.15 -6.19,0.37 -11.11,-4.09 -11.79,-9.42 -1.23,-9.74 6.42,-60.22 7.94,-74.02 1.5,-13.67 6.14,-18.98 12.1,-28.98l68.57 -118.76c3.69,-6.5 5.36,-6.56 5.35,-15.39 -0.04,-29.41 1.48,-147.02 -0.27,-165.53l-369.25 -0.29 -0.45 44.58z"/>
   <g style="clip-path:url(#id0)">
    <g>
     <path id="_1" class="fil2" d="M60.1 479.81l0 -438.99c0,-29.38 31.09,-53.21 69.45,-53.21l256.05 0c38.35,0 69.46,23.82 69.46,53.21l0 438.99c0,29.39 -31.11,53.21 -69.46,53.21l-256.05 0c-38.35,0 -69.45,-23.82 -69.45,-53.21z"/>
    </g>
   </g>
   <path class="fil3" d="M72.3 67.77c5.92,0 305.59,-1.49 315.8,0.72 13.2,2.86 22.79,13.5 23.59,28.97l0.04 106.03c-1.4,39.3 -43.85,30.81 -73.87,30.81 -88.51,0 -177.02,0 -265.54,0l0.01 263.14 369.67 -0 0.22 -123.98c-8.67,14.24 -6.88,12.3 -19.32,20.97 -8.24,5.74 -56.65,40.79 -62.81,41.15 -6.19,0.37 -11.11,-4.09 -11.79,-9.42 -1.23,-9.74 6.42,-60.22 7.94,-74.02 1.5,-13.67 6.14,-18.98 12.1,-28.98l68.57 -118.76c3.69,-6.5 5.36,-6.56 5.35,-15.39 -0.04,-29.41 1.48,-147.02 -0.27,-165.53l-369.25 -0.29 -0.45 44.58z"/>
   <path class="fil4" d="M28.28 90.65c-8.75,3.32 -6.01,14.15 -6.01,24.7 0,14.69 -0.81,86.79 0.51,90.98 2.54,8.05 15.55,5.67 24.05,5.67 48.8,-0 331.49,1.22 337.03,-0.54 7.88,-2.51 5.58,-15.44 5.58,-24.75 0,-15.2 0.91,-86.25 -0.55,-91.11 -2.36,-7.88 -14.75,-5.54 -24.27,-5.54 -60.59,0 -330.96,-1.46 -336.35,0.58z"/>
   <path class="fil1" d="M384.02 342.06l37.37 20.8c3.17,-2.94 48.15,-82.69 55.11,-94.37 9.42,-15.81 18.13,-30.96 27.39,-47.3 4.53,-7.99 25.32,-42.7 26.95,-47.85l-37.35 -21.86 -27.56 47.35c-7.93,14 -79.48,135.22 -81.91,143.24z"/>
   <path class="fil0" d="M298.9 140.04c9.22,6.07 12.82,14.99 21.2,15.21 8.76,0.23 15.67,-11.65 22.06,-15.31 0.33,9.9 0.1,20.11 0.1,30.05 0,9.06 -2.12,21.85 4.45,26.83 7.32,5.56 16.69,0.02 17.69,-7.97l0.14 -61.23c0,-9.24 1.81,-20.88 -7.2,-23.96 -8.32,-2.85 -17,6.69 -20.07,10 -5.95,6.41 -10.24,8.24 -15.75,15.22 -12.38,-6.29 -45.22,-53.41 -45.13,-3.49l0 61.4c0.53,9.15 8.47,15.78 17.26,10.36 9.06,-5.58 3.72,-37.24 5.24,-57.11z"/>
   <path class="fil0" d="M69.52 176.35l0 -13.78c11.61,-1.71 32.23,4.06 32,-11.51 -0.23,-15.72 -19.8,-9.76 -32,-11.56l0 -13.82c10.87,-1.83 35.58,2.6 42.32,-3.28 4.26,-3.72 5.08,-11.39 0.9,-16.07 -4.01,-4.49 -13.03,-3.39 -20.19,-3.37 -53.41,0.07 -45.31,-5.79 -45.31,48.08 0,53.03 -8.3,47.96 44.19,48 6.87,0 16.35,1.18 20.69,-2.8 4.11,-3.76 4.53,-11.67 0.37,-16.07 -6.61,-7.01 -31.75,-2.07 -42.98,-3.83z"/>
   <path class="fil0" d="M138.71 414.01c-7.55,2.08 -11.9,10.07 -6.65,17.57 3.87,5.53 14.49,4.2 22.94,4.19 24.74,-0.01 157.98,1.11 163.42,-0.83 6.06,-2.16 9.68,-10.93 4.83,-17.25 -4.33,-5.65 -13.58,-4.25 -22.18,-4.24 -26.52,0.02 -154.66,-1.56 -162.36,0.56z"/>
   <path class="fil0" d="M136.78 353.42c-6.74,2.52 -9.71,11.76 -3.61,17.95 4.9,4.97 14.83,3.44 22.95,3.44 24.32,-0.01 157.47,1.02 162.59,-0.94 5.86,-2.25 9.81,-10.57 4.28,-17.22 -4.84,-5.82 -14.18,-4.17 -23.02,-4.17 -24.67,0.01 -157.81,-1.07 -163.18,0.94z"/>
   <path class="fil0" d="M137.49 292.45c-6.99,2.83 -11.13,11.15 -4.59,17.87 4.84,4.98 15.13,3.52 23.21,3.52 24.33,-0 157.89,1.15 162.91,-1.06 6.11,-2.68 8.74,-11.63 3.78,-17.32 -4.63,-5.3 -14.6,-3.94 -22.84,-3.94 -24.22,0.01 -157.53,-1.06 -162.47,0.93z"/>
   <path class="fil0" d="M142.04 151.04c-8.69,17.58 -27,32.26 -19.92,42.89 3.82,5.74 13.14,8.62 20.13,-2.09l9.69 -14.83c0.59,-0.91 1.12,-1.84 1.81,-2.67l2.36 -2.19c8.9,10.89 13.27,24.76 21.59,26.5 5.41,1.13 9.67,-1.29 11.62,-4.37 5.49,-8.66 -2.97,-17.06 -6.78,-22.83 -4.06,-6.15 -10.35,-14.49 -13.07,-20.41 2.5,-5.64 8.84,-14.09 12.59,-19.78 3.53,-5.36 12.19,-14.01 7.72,-22.77 -4.41,-8.63 -14.94,-6.4 -20.26,1.31 -4.53,6.57 -8.37,13.81 -13.41,20.09l-3.71 -4.17c-4.26,-6.44 -11.85,-21.35 -18.85,-22.45 -5.59,-0.88 -9.55,1.88 -11.48,4.83 -5.38,8.2 3.16,16.72 6.78,22.23 3.98,6.06 10.02,14.07 13.19,20.71z"/>
   <path class="fil0" d="M221.51 179.57c38.83,0 18.67,-0.33 30.48,14.95 3.25,4.2 10.1,6.48 15.72,2.32 8.68,-6.42 -0.24,-23.03 -3.67,-32.2l-17.81 -49.09c-2.48,-6.68 -3.33,-11.72 -11.09,-12.41 -12.28,-1.09 -14.84,15.59 -18.55,25.87 -3.99,11.06 -7.96,21.49 -11.93,32.67 -3.02,8.51 -12.61,26.55 -5.92,33.71 3.63,3.89 11.56,4.76 15.82,0.73 3.27,-3.09 5.73,-11.21 6.94,-16.56zm8.13 -29.29l3.93 -14.03 3.94 13.81 -7.87 0.22z"/>
   <path class="fil5" d="M505.18 132.08c5.19,3.69 33.32,20.32 38.2,21.68 2.39,-6.69 6.48,-10.46 4.83,-20.18 -1.08,-6.36 -6.34,-12.72 -10.52,-15.09 -13.96,-7.93 -29.82,1.74 -32.51,13.59z"/>
   <path class="fil5" d="M373.2 400.88l31.46 -20.98c-2.21,-2.84 -23.23,-15.02 -27.38,-15.8l-4.08 36.78z"/>
  </g>
 </g>
</svg>
