<?xml version="1.0" encoding="UTF-8"?>
<!DOCTYPE svg PUBLIC "-//W3C//DTD SVG 1.1//EN" "http://www.w3.org/Graphics/SVG/1.1/DTD/svg11.dtd">
<!-- Creator: CorelDRAW -->
<svg xmlns="http://www.w3.org/2000/svg" xml:space="preserve" width="0.52628in" height="0.526323in" version="1.1" style="shape-rendering:geometricPrecision; text-rendering:geometricPrecision; image-rendering:optimizeQuality; fill-rule:evenodd; clip-rule:evenodd"
viewBox="0 0 526.28 526.33"
 xmlns:xlink="http://www.w3.org/1999/xlink"
 xmlns:xodm="http://www.corel.com/coreldraw/odm/2003">
 <defs>
  <style type="text/css">
   <![CDATA[
    .fil2 {fill:black}
    .fil3 {fill:#348ED8}
    .fil0 {fill:#60D0DF}
    .fil5 {fill:#8ADBE6}
    .fil4 {fill:#FDC8A2}
    .fil1 {fill:#FEB430}
   ]]>
  </style>
 </defs>
 <g id="Layer_x0020_1">
  <metadata id="CorelCorpID_0Corel-Layer"/>
  <g id="_2549659994976">
   <path class="fil0" d="M138.49 88.92c0,48.79 -47.82,40.39 -83.1,40.39l0 328.92c0,14.87 7.13,21.93 21.93,21.93l144.26 0 -0.01 9.23 29.09 -0.07c-8.73,-9.03 -20.6,-12.78 -26.18,-25.9 -6.11,-14.36 -1.3,-31.17 7.97,-39.31 8.28,-7.28 6.04,-0.21 11.93,-13.46 3.52,-7.92 7.43,-9.14 11.17,-15.39 10.31,-17.2 -7.59,-108.3 11.9,-146.18 10.83,-21.04 31.04,-40.26 61.42,-44.84 -1.85,-9.06 -7.09,-22.19 -10.13,-31.3 -9.75,-29.22 -4.86,-25.16 41.25,-25.16l0.07 -18.48 -9.24 0 0 -61.16c0,-14.02 -6.61,-21.93 -20.78,-21.93l-191.58 0 -0 42.71z"/>
   <path class="fil1" d="M263.56 415.53c9.74,4.21 10.07,2.37 18.31,8.97 5.22,4.19 9.99,9 15.19,12.39 7.7,-14.58 15.24,-21.4 36.48,-21.37 19.99,0.03 40.06,-0.17 60.04,0.04 14.83,0.16 7.42,-1 20.48,-8.38 29.56,-16.69 47.31,-9.96 71.58,-2.09 -5.6,-13.32 -5.54,-14.62 -5.52,-31.11 0.03,-25.17 2.37,-92.36 -3.75,-109.35 -18.28,-50.73 -67.86,-43 -107.05,-43 -27.14,0 -43.58,-2.39 -63.77,11.22 -38.56,25.99 -28.56,71.37 -28.56,121.5 0,17.67 2.73,35.81 -5.41,49.97 -3,5.21 -6.47,7.13 -8.02,11.2z"/>
   <path class="fil2" d="M203.12 443.22l0 -18.46 -46.16 0 -0 -27.71 83.39 0 -0.29 -18.45 -83.09 0 -0 -27.71 83.1 0 -0 -18.46 -83.09 0 -0 -27.71 83.1 0 -0 -18.46 -83.09 0 -0 -27.7 83.1 0 2.31 -18.46 -85.4 0 -0 -27.71 120.61 0 -0.58 -18.46 -120.02 0 -0 -27.7 137.92 0 0.57 -18.46c-52.32,0 -104.63,0 -156.95,0 -19.46,0 -50.89,-5.24 -55.06,23.47 -1.26,8.67 -0.32,228.92 -0.33,235.04 -0.06,32.04 10.77,36.93 41.55,36.93 26.16,-0.01 52.32,0 78.47,0z"/>
   <path class="fil3" d="M9.23 46.21l-9.22 0 -0.01 18.48 9.23 0c0,10.63 -1.41,348.29 0.75,355.86 2.15,7.54 6.14,8.96 11.39,12.81l-2.74 8.37c7.02,1.84 11.16,1.5 18.32,1.5l0 -302.38c0,-23.45 -3.08,-21.34 9.74,-34.11 17.08,-17 59.15,-60.74 75.6,-75.61 5.22,-4.72 10.41,-3.4 18.52,-3.38 57.7,0.14 115.42,0 173.12,0l-0.94 -18.22 -8.96 2.59c-9.98,-13.57 -11.02,-12.09 -31.66,-12.08l-220.43 0c-44.53,0 -42.71,0.05 -42.71,46.17z"/>
   <path class="fil4" d="M397.01 461.7l0 18.45c-20,0 -40,-0.03 -60.01,0 -10.23,0.02 -17.2,0.25 -25.45,-4.52 -9.47,-5.47 -7.57,-8.85 -15.01,-15 -5.48,-4.53 -10.77,-9.03 -16.5,-13.55 -4.45,-3.5 -11.74,-11.11 -17.36,-12.59 -19.43,-5.13 -30.83,15.35 -14.93,28.74l67.91 52.14c7.96,3.7 101.37,1.72 118.3,1.72l0 9.24 18.47 0 0.01 -9.24 36.96 0 -0.04 -87.78c-14.13,-7.03 -30.7,-21.75 -60.72,-8.74 -31.16,13.5 7.67,13.42 -66.23,13.42 -7.78,0 -32.84,-0.93 -38.57,0.71 -11.22,3.2 -13.25,18.78 -3.94,24.52 8.11,5.01 63.04,2.48 77.13,2.48z"/>
   <path class="fil2" d="M369.33 277.04c-31.41,0.49 -34.11,33.63 -17.8,45.47 10.11,7.35 41.13,12.34 44.43,18.01 8.61,14.78 -30.94,11.32 -33.82,8.33l-2.85 -6.35c-0.07,-0.19 -0.19,-0.58 -0.35,-0.83l-17.31 0c0.31,17.52 10.09,27.36 27.7,27.69l0 9.23 18.45 0 0 -9.23c31.13,-0.52 34.15,-33.58 17.81,-45.47 -10.26,-7.46 -41.15,-12.37 -44.44,-18 -8.67,-14.82 30.99,-11.3 33.82,-8.34l2.85 6.35c0.07,0.19 0.19,0.57 0.35,0.83l17.38 0c-0.41,-17.56 -10.2,-27.39 -27.78,-27.69l0 -9.23 -18.39 0 -0.07 9.23z"/>
   <polygon class="fil2" points="156.97,92.38 324.31,92.38 323.15,92.38 323.15,73.92 156.97,73.92 "/>
   <polygon class="fil1" points="348.25,203.1 409.71,203.14 420.99,166.6 416.64,166.22 340.47,166.28 336.18,166.5 "/>
   <polygon class="fil2" points="156.97,129.31 240.06,129.31 240.06,110.85 156.67,110.85 "/>
   <polygon class="fil3" points="507.81,517.1 526.28,517.1 526.28,433.99 507.81,433.99 "/>
   <path class="fil5" d="M68.67 110.43l5.2 0.43 24.24 -0.01c14.78,0 21.93,-7.16 21.93,-21.93l0 -24.24 -0.04 -4.83 -51.32 50.58z"/>
   <polygon class="fil0" points="101.56,378.61 139.08,378.61 138.5,350.9 101.57,350.9 "/>
   <polygon class="fil0" points="101.56,332.44 138.79,332.44 138.5,304.73 101.57,304.73 "/>
   <polygon class="fil0" points="101.56,240.11 138.79,240.11 138.5,212.4 101.57,212.4 "/>
   <polygon class="fil0" points="101.56,286.27 138.79,286.27 138.5,258.57 101.86,258.57 "/>
   <path class="fil0" d="M101.56 193.95l37.22 0 -0.28 -27.7c-6.01,0 -27.28,-0.85 -31.4,0.94 -7.91,3.46 -5.54,17.4 -5.54,26.76z"/>
   <path class="fil0" d="M101.56 412.07c0,9.2 3.49,12.7 12.7,12.7l24.23 0 0.01 -27.71 -36.94 0 -0 15.01z"/>
   <polygon class="fil2" points="295.46,332.43 313.88,332.43 313.92,286.28 295.38,286.28 "/>
   <path class="fil2" d="M302.35 263.19l14.9 8.97c2.63,-2.44 2.51,-3.39 4.69,-5.57 2.19,-2.2 3.11,-2.04 5.33,-4.56l-8.46 -15.2c-6,2.04 -14.62,10.63 -16.47,16.36z"/>
  </g>
 </g>
</svg>
