<?xml version="1.0" encoding="UTF-8"?>
<!DOCTYPE svg PUBLIC "-//W3C//DTD SVG 1.1//EN" "http://www.w3.org/Graphics/SVG/1.1/DTD/svg11.dtd">
<!-- Creator: CorelDRAW -->
<svg xmlns="http://www.w3.org/2000/svg" xml:space="preserve" width="0.581173in" height="0.581236in" version="1.1" style="shape-rendering:geometricPrecision; text-rendering:geometricPrecision; image-rendering:optimizeQuality; fill-rule:evenodd; clip-rule:evenodd"
viewBox="0 0 581.17 581.24"
 xmlns:xlink="http://www.w3.org/1999/xlink"
 xmlns:xodm="http://www.corel.com/coreldraw/odm/2003">
 <defs>
  <style type="text/css">
   <![CDATA[
    .fil3 {fill:none}
    .fil0 {fill:#CCE7D4}
    .fil4 {fill:#CCE7D4}
    .fil1 {fill:#1C84E7}
    .fil2 {fill:url(#id1)}
   ]]>
  </style>
    <clipPath id="id0">
     <path d="M325.77 415.47c-8.74,-0.58 -20.47,5.69 -45.78,3.5 -104.62,-9.06 -153.04,-130.52 -89.8,-209.02 75.71,-93.96 229.87,-40.95 229.12,81.15 -0.52,33.03 -12.89,60.96 -28.32,80.18 -29.4,36.61 -59.21,38.33 -65.22,44.19zm119.4 -345.44c-27.23,-4.09 -41.64,35.86 -55.28,33.93 -3.1,-0.44 -25.35,-10.87 -31.96,-13.17 -8.34,-2.9 -9.27,-4.37 -9.33,-13.97 -0.14,-22.03 3.55,-42.6 -14.48,-54.03 -10.76,-6.82 -28.48,-4.54 -42.36,-4.54 -23.2,0 -58.94,-6.16 -59.23,34.08 -0.15,21.84 3.58,33.57 -7.5,37.89 -5.11,1.99 -31.77,13.4 -33.36,13.61 -15.32,2.08 -27.46,-39.48 -58.72,-33.52 -14.01,2.67 -38.94,31.86 -49.41,42.29 -6.9,6.87 -16.44,15.72 -13.31,32.32 2.77,14.71 19.69,26.41 30.56,38.02 5.41,5.78 3.39,9.11 0.18,15.61 -2.52,5.12 -10.94,29.63 -14.36,32.16 -11.22,8.31 -58.13,-11.46 -67.26,24.51 -2.36,9.29 -1.12,33.83 -1.12,44.7 0,37.11 3.97,48.77 44.59,48.76 24.31,-0.01 22.61,-4.18 30.46,16.07 14.94,38.54 16.8,22.24 -14.04,55.03 -24.24,25.77 1.07,45.62 14.78,59.3 18.27,18.23 32.72,40.05 57.05,29.98 15.43,-6.39 29.43,-31.43 38.39,-31.8 6.44,-0.26 10.58,5.52 17.69,5.78 5.86,6.25 22.07,6.07 24.72,13.85 2.04,6 0.04,30.09 0.93,38.8 1.16,11.19 8.02,18.98 15.03,23.17 9.55,5.7 23.78,4.12 35.81,4.12 28.65,0 49.92,4.81 61.59,-16.72 5.09,-9.39 3.46,-23.31 3.43,-34.83 -0.05,-20.29 -0.59,-16.98 16.08,-23.48 35.53,-13.85 24.71,-16.21 49.19,8.24 15.81,15.79 32.06,23.74 51.79,4.39l38.79 -39.11c20.94,-25.06 -6.95,-46.5 -21.67,-60.93 -11.82,-11.58 -1.89,-15.53 7.29,-41.77 4.48,-12.79 7.15,-10.13 28.28,-10.12 14.27,0 22.76,0.61 32.84,-6.6 16.42,-11.74 11.73,-41.98 11.75,-66.57 0.02,-23.1 -3.47,-42.89 -35.28,-42.97 -45.22,-0.12 -29.94,3.32 -46.31,-31.64 -7.51,-16.05 -3.13,-15.6 6.1,-24.86 5.4,-5.41 14.94,-13.69 19.19,-20.33 15.48,-24.24 -7.46,-41.55 -17.15,-51.24 -14.15,-14.15 -27.96,-32.43 -44.35,-34.44z"/>
    </clipPath>
  <linearGradient id="id1" gradientUnits="userSpaceOnUse" x1="-14.15" y1="290.67" x2="595.62" y2="290.67">
   <stop offset="0" style="stop-opacity:1; stop-color:#EF4E4D"/>
   <stop offset="1" style="stop-opacity:1; stop-color:#5264AC"/>
  </linearGradient>
 </defs>
 <g id="Layer_x0020_1">
  <metadata id="CorelCorpID_0Corel-Layer"/>
  <g id="_2549656398272">
   <path class="fil0" d="M214.39 73.28c-2.2,2.73 -18.83,9.44 -22.59,10.37 -12,-11.23 -26.19,-32.36 -53.44,-32.08 -25.86,0.27 -41.89,22.32 -53.2,33.62 -11.06,11.04 -32.89,27.16 -33.61,52.12 -0.82,28.47 20.61,42.12 32.07,54.52 -1,3.78 -7.63,20.37 -10.38,22.61 -4.35,1.55 -39.04,-6.71 -59.39,14.46 -15.38,16.01 -13.82,34.83 -13.82,61.71 0,26.7 -1.59,44.56 13.27,61.11 19.44,21.65 56,13.67 59.94,15.07 2.75,2.24 9.37,18.85 10.37,22.61 -11.2,12.19 -32.3,26 -32.09,53.41 0.2,25.81 22.37,42 33.63,53.23 11.27,11.25 26.88,32.68 52.04,33.58 28.08,1 42.36,-20.78 54.6,-32.05 3.77,0.93 20.37,7.63 22.59,10.37 0,25.6 -0.21,45.25 14.5,59.38 15.94,15.32 34.91,13.86 61.7,13.86 26.63,0 44.63,1.5 61.12,-13.29 21.6,-19.36 13.7,-56.06 15.08,-59.95 2.8,-3.46 18.14,-9.12 22.59,-10.38 12.54,11.23 25.25,32.47 53.46,32.08 25.94,-0.36 41.83,-22.16 53.19,-33.61 11.22,-11.31 32.69,-26.76 33.57,-52.04 0.99,-28.18 -20.76,-42.31 -32.04,-54.6 1.16,-4.36 6.94,-19.81 10.37,-22.61 25.57,0 45.3,0.22 59.38,-14.47 15.34,-16.01 13.82,-34.86 13.82,-61.71 0,-29.77 1.81,-64.92 -36.9,-74.64 -10.09,-2.54 -25.41,-1.54 -36.3,-1.54 -2.75,-2.24 -9.37,-18.86 -10.37,-22.61 11.31,-12.31 32.46,-25.47 32.07,-53.46 -0.37,-26.15 -22.15,-41.63 -33.61,-53.19 -11.2,-11.3 -26.86,-32.69 -52.04,-33.58 -28.52,-1.01 -42.11,20.98 -54.61,32.07 -4.45,-1.28 -19.78,-6.91 -22.59,-10.39 0,-10.59 0.93,-25.53 -1.33,-35.37 -2.15,-9.32 -8.43,-19.52 -13.14,-24.03 -16.01,-15.35 -34.86,-13.84 -61.73,-13.84 -26.62,0 -44.64,-1.55 -61.1,13.31 -4.8,4.33 -11.21,14.26 -13.56,23.6 -2.55,10.15 -1.54,25.47 -1.54,36.33zm64.13 107.35c-56.74,6.52 -105.2,57.19 -97.93,122.26 6.3,56.41 57.57,105.03 122.27,97.73 56.47,-6.38 105.04,-57.49 97.73,-122.27 -6.37,-56.4 -57.56,-105.13 -122.07,-97.72z"/>
   <path class="fil1" d="M325.77 415.47c-8.74,-0.58 -20.47,5.69 -45.78,3.5 -104.62,-9.06 -153.04,-130.52 -89.8,-209.02 75.71,-93.96 229.87,-40.95 229.12,81.15 -0.52,33.03 -12.89,60.96 -28.32,80.18 -29.4,36.61 -59.21,38.33 -65.22,44.19zm119.4 -345.44c-27.23,-4.09 -41.64,35.86 -55.28,33.93 -3.1,-0.44 -25.35,-10.87 -31.96,-13.17 -8.34,-2.9 -9.27,-4.37 -9.33,-13.97 -0.14,-22.03 3.55,-42.6 -14.48,-54.03 -10.76,-6.82 -28.48,-4.54 -42.36,-4.54 -23.2,0 -58.94,-6.16 -59.23,34.08 -0.15,21.84 3.58,33.57 -7.5,37.89 -5.11,1.99 -31.77,13.4 -33.36,13.61 -15.32,2.08 -27.46,-39.48 -58.72,-33.52 -14.01,2.67 -38.94,31.86 -49.41,42.29 -6.9,6.87 -16.44,15.72 -13.31,32.32 2.77,14.71 19.69,26.41 30.56,38.02 5.41,5.78 3.39,9.11 0.18,15.61 -2.52,5.12 -10.94,29.63 -14.36,32.16 -11.22,8.31 -58.13,-11.46 -67.26,24.51 -2.36,9.29 -1.12,33.83 -1.12,44.7 0,37.11 3.97,48.77 44.59,48.76 24.31,-0.01 22.61,-4.18 30.46,16.07 14.94,38.54 16.8,22.24 -14.04,55.03 -24.24,25.77 1.07,45.62 14.78,59.3 18.27,18.23 32.72,40.05 57.05,29.98 15.43,-6.39 29.43,-31.43 38.39,-31.8 6.44,-0.26 10.58,5.52 17.69,5.78 5.86,6.25 22.07,6.07 24.72,13.85 2.04,6 0.04,30.09 0.93,38.8 1.16,11.19 8.02,18.98 15.03,23.17 9.55,5.7 23.78,4.12 35.81,4.12 28.65,0 49.92,4.81 61.59,-16.72 5.09,-9.39 3.46,-23.31 3.43,-34.83 -0.05,-20.29 -0.59,-16.98 16.08,-23.48 35.53,-13.85 24.71,-16.21 49.19,8.24 15.81,15.79 32.06,23.74 51.79,4.39l38.79 -39.11c20.94,-25.06 -6.95,-46.5 -21.67,-60.93 -11.82,-11.58 -1.89,-15.53 7.29,-41.77 4.48,-12.79 7.15,-10.13 28.28,-10.12 14.27,0 22.76,0.61 32.84,-6.6 16.42,-11.74 11.73,-41.98 11.75,-66.57 0.02,-23.1 -3.47,-42.89 -35.28,-42.97 -45.22,-0.12 -29.94,3.32 -46.31,-31.64 -7.51,-16.05 -3.13,-15.6 6.1,-24.86 5.4,-5.41 14.94,-13.69 19.19,-20.33 15.48,-24.24 -7.46,-41.55 -17.15,-51.24 -14.15,-14.15 -27.96,-32.43 -44.35,-34.44z"/>
   <g style="clip-path:url(#id0)">
    <g>
     <path id="_1" class="fil2" d="M536.13 581.3l-490.8 0c-32.85,0 -59.49,-45.76 -59.49,-102.22l0 -376.81c0,-56.46 26.63,-102.22 59.49,-102.22l490.8 0c32.85,0 59.49,45.76 59.49,102.22l0 376.81c0,56.47 -26.63,102.22 -59.49,102.22z"/>
    </g>
   </g>
   <path class="fil3" d="M325.77 415.47c-8.74,-0.58 -20.47,5.69 -45.78,3.5 -104.62,-9.06 -153.04,-130.52 -89.8,-209.02 75.71,-93.96 229.87,-40.95 229.12,81.15 -0.52,33.03 -12.89,60.96 -28.32,80.18 -29.4,36.61 -59.21,38.33 -65.22,44.19zm119.4 -345.44c-27.23,-4.09 -41.64,35.86 -55.28,33.93 -3.1,-0.44 -25.35,-10.87 -31.96,-13.17 -8.34,-2.9 -9.27,-4.37 -9.33,-13.97 -0.14,-22.03 3.55,-42.6 -14.48,-54.03 -10.76,-6.82 -28.48,-4.54 -42.36,-4.54 -23.2,0 -58.94,-6.16 -59.23,34.08 -0.15,21.84 3.58,33.57 -7.5,37.89 -5.11,1.99 -31.77,13.4 -33.36,13.61 -15.32,2.08 -27.46,-39.48 -58.72,-33.52 -14.01,2.67 -38.94,31.86 -49.41,42.29 -6.9,6.87 -16.44,15.72 -13.31,32.32 2.77,14.71 19.69,26.41 30.56,38.02 5.41,5.78 3.39,9.11 0.18,15.61 -2.52,5.12 -10.94,29.63 -14.36,32.16 -11.22,8.31 -58.13,-11.46 -67.26,24.51 -2.36,9.29 -1.12,33.83 -1.12,44.7 0,37.11 3.97,48.77 44.59,48.76 24.31,-0.01 22.61,-4.18 30.46,16.07 14.94,38.54 16.8,22.24 -14.04,55.03 -24.24,25.77 1.07,45.62 14.78,59.3 18.27,18.23 32.72,40.05 57.05,29.98 15.43,-6.39 29.43,-31.43 38.39,-31.8 6.44,-0.26 10.58,5.52 17.69,5.78 5.86,6.25 22.07,6.07 24.72,13.85 2.04,6 0.04,30.09 0.93,38.8 1.16,11.19 8.02,18.98 15.03,23.17 9.55,5.7 23.78,4.12 35.81,4.12 28.65,0 49.92,4.81 61.59,-16.72 5.09,-9.39 3.46,-23.31 3.43,-34.83 -0.05,-20.29 -0.59,-16.98 16.08,-23.48 35.53,-13.85 24.71,-16.21 49.19,8.24 15.81,15.79 32.06,23.74 51.79,4.39l38.79 -39.11c20.94,-25.06 -6.95,-46.5 -21.67,-60.93 -11.82,-11.58 -1.89,-15.53 7.29,-41.77 4.48,-12.79 7.15,-10.13 28.28,-10.12 14.27,0 22.76,0.61 32.84,-6.6 16.42,-11.74 11.73,-41.98 11.75,-66.57 0.02,-23.1 -3.47,-42.89 -35.28,-42.97 -45.22,-0.12 -29.94,3.32 -46.31,-31.64 -7.51,-16.05 -3.13,-15.6 6.1,-24.86 5.4,-5.41 14.94,-13.69 19.19,-20.33 15.48,-24.24 -7.46,-41.55 -17.15,-51.24 -14.15,-14.15 -27.96,-32.43 -44.35,-34.44z"/>
   <path class="fil4" d="M316.48 382.51c4.43,-4.3 26.36,-5.57 48,-32.52 11.35,-14.14 20.46,-34.69 20.84,-59 0.55,-89.85 -112.89,-128.87 -168.6,-59.72 -46.54,57.76 -10.91,147.15 66.08,153.81 18.63,1.61 27.26,-3 33.69,-2.57z"/>
  </g>
 </g>
</svg>
