<?xml version="1.0" encoding="UTF-8"?>
<!DOCTYPE svg PUBLIC "-//W3C//DTD SVG 1.1//EN" "http://www.w3.org/Graphics/SVG/1.1/DTD/svg11.dtd">
<!-- Creator: CorelDRAW -->
<svg xmlns="http://www.w3.org/2000/svg" xml:space="preserve" width="0.461406in" height="0.557803in" version="1.1" style="shape-rendering:geometricPrecision; text-rendering:geometricPrecision; image-rendering:optimizeQuality; fill-rule:evenodd; clip-rule:evenodd"
viewBox="0 0 461.4 557.8"
 xmlns:xlink="http://www.w3.org/1999/xlink"
 xmlns:xodm="http://www.corel.com/coreldraw/odm/2003">
 <defs>
  <style type="text/css">
   <![CDATA[
    .fil2 {fill:none}
    .fil0 {fill:#686FDA}
    .fil1 {fill:url(#id1)}
   ]]>
  </style>
   <clipPath id="id0">
    <path d="M23.74 59.63l200.61 58.12c11.79,3.25 28.98,-4.91 40.96,-8.31 19.01,-5.39 63.81,-15.82 78.72,-23.25 -27.43,-4.41 -55,-7.82 -82.54,-11.76 -4.91,-0.7 -15.37,-2.79 -19.97,-2.32 -5.96,0.61 -11.96,3.81 -19.21,0.5 -14.89,-6.82 -10.1,-25.13 4.17,-27.92 9.68,-1.89 11.41,1.89 18.4,3.76 5.47,1.47 15.19,2.26 21.31,3.11l105.32 14.59c7.18,0.92 9.1,0.75 13.73,4.61 0.35,0.3 1.4,1.29 1.71,1.56 0.24,0.22 0.69,0.62 0.89,0.8 0.2,0.18 0.58,0.56 0.91,0.8l50.01 -14.27c-4.48,-2.7 -200.42,-59.26 -206.61,-59.66 -8,-0.51 -160.47,45.26 -196.05,55.02 -4.45,1.22 -8.8,1.87 -12.35,4.6zm347.42 24.24l0.02 88.33c-0.74,9.61 -3.05,5.61 -3.4,12.2 -0.31,5.75 2.71,6.26 5.13,10.5l-7.51 41.41 21.8 -0.05c-0.82,-5.85 -7.78,-38.37 -6.69,-42.18 1.41,-4.98 5.64,-4.04 4.14,-11.81 -5.45,-28.37 0.51,-87.69 -1.87,-102.95 -1.45,-9.26 -17.39,-8.05 -25.75,-9.2l-114.61 -16.07c-6.12,-1.7 -1.47,-1 -6.52,-2.8 -11.71,-4.16 -21.11,5.24 -14.78,13.26 6.73,8.54 15.37,0.45 26.87,2.07 39.41,5.55 84.24,14.29 123.18,17.31zm-40.46 92.27c-28.28,-2.03 -69.81,6.85 -99.98,6.92 -31.87,0.07 -67.66,-6.98 -99.76,-7.3 -18.88,142.81 115.31,210.75 179.09,109.13 18.96,-30.21 23.46,-67.47 20.65,-108.75zm25.97 -83.26c-21.78,2.75 -113.44,35 -125.99,35 -12.07,0.01 -102.03,-31.49 -126.12,-35.1 0.39,11.22 -0.78,66.01 0.72,72.64 6.11,27.05 -6.4,56.66 13.45,106.42 55.56,139.31 243.17,103.24 235.85,-84.52 -0.42,-10.65 -1.48,-11.26 1.13,-20.8 1.91,-6.98 0.93,-15.76 0.93,-23.31 -0.01,-16.78 -0.04,-33.57 0.03,-50.34zm-355.45 464.92l458.75 -0.07c2.94,-19.59 1.16,-91.83 -3.61,-109.78 -8.27,-31.11 -28.77,-54.63 -47.83,-67.68 -30.08,-20.6 -51.49,-21.41 -94.25,-21.73 -26.44,-0.2 -9.2,0.69 -39.39,18.84 -64.55,38.8 -116.57,-17.35 -126.24,-18.73 -12.91,-1.84 -42.98,0.41 -54.93,3.26 -40.84,9.73 -75.53,40.77 -88.32,84.92 -5.93,20.48 -6.37,87.17 -4.16,110.98z"/>
   </clipPath>
  <linearGradient id="id1" gradientUnits="userSpaceOnUse" x1="230.7" y1="-8.82" x2="230.7" y2="566.62">
   <stop offset="0" style="stop-opacity:1; stop-color:#F5EE79"/>
   <stop offset="1" style="stop-opacity:1; stop-color:#F48351"/>
  </linearGradient>
 </defs>
 <g id="Layer_x0020_1">
  <metadata id="CorelCorpID_0Corel-Layer"/>
  <path class="fil0" d="M23.74 59.63l200.61 58.12c11.79,3.25 28.98,-4.91 40.96,-8.31 19.01,-5.39 63.81,-15.82 78.72,-23.25 -27.43,-4.41 -55,-7.82 -82.54,-11.76 -4.91,-0.7 -15.37,-2.79 -19.97,-2.32 -5.96,0.61 -11.96,3.81 -19.21,0.5 -14.89,-6.82 -10.1,-25.13 4.17,-27.92 9.68,-1.89 11.41,1.89 18.4,3.76 5.47,1.47 15.19,2.26 21.31,3.11l105.32 14.59c7.18,0.92 9.1,0.75 13.73,4.61 0.35,0.3 1.4,1.29 1.71,1.56 0.24,0.22 0.69,0.62 0.89,0.8 0.2,0.18 0.58,0.56 0.91,0.8l50.01 -14.27c-4.48,-2.7 -200.42,-59.26 -206.61,-59.66 -8,-0.51 -160.47,45.26 -196.05,55.02 -4.45,1.22 -8.8,1.87 -12.35,4.6zm347.42 24.24l0.02 88.33c-0.74,9.61 -3.05,5.61 -3.4,12.2 -0.31,5.75 2.71,6.26 5.13,10.5l-7.51 41.41 21.8 -0.05c-0.82,-5.85 -7.78,-38.37 -6.69,-42.18 1.41,-4.98 5.64,-4.04 4.14,-11.81 -5.45,-28.37 0.51,-87.69 -1.87,-102.95 -1.45,-9.26 -17.39,-8.05 -25.75,-9.2l-114.61 -16.07c-6.12,-1.7 -1.47,-1 -6.52,-2.8 -11.71,-4.16 -21.11,5.24 -14.78,13.26 6.73,8.54 15.37,0.45 26.87,2.07 39.41,5.55 84.24,14.29 123.18,17.31zm-40.46 92.27c-28.28,-2.03 -69.81,6.85 -99.98,6.92 -31.87,0.07 -67.66,-6.98 -99.76,-7.3 -18.88,142.81 115.31,210.75 179.09,109.13 18.96,-30.21 23.46,-67.47 20.65,-108.75zm25.97 -83.26c-21.78,2.75 -113.44,35 -125.99,35 -12.07,0.01 -102.03,-31.49 -126.12,-35.1 0.39,11.22 -0.78,66.01 0.72,72.64 6.11,27.05 -6.4,56.66 13.45,106.42 55.56,139.31 243.17,103.24 235.85,-84.52 -0.42,-10.65 -1.48,-11.26 1.13,-20.8 1.91,-6.98 0.93,-15.76 0.93,-23.31 -0.01,-16.78 -0.04,-33.57 0.03,-50.34zm-355.45 464.92l458.75 -0.07c2.94,-19.59 1.16,-91.83 -3.61,-109.78 -8.27,-31.11 -28.77,-54.63 -47.83,-67.68 -30.08,-20.6 -51.49,-21.41 -94.25,-21.73 -26.44,-0.2 -9.2,0.69 -39.39,18.84 -64.55,38.8 -116.57,-17.35 -126.24,-18.73 -12.91,-1.84 -42.98,0.41 -54.93,3.26 -40.84,9.73 -75.53,40.77 -88.32,84.92 -5.93,20.48 -6.37,87.17 -4.16,110.98z"/>
  <g style="clip-path:url(#id0)">
   <g id="_2549656985120">
    <path id="_1" class="fil1" d="M-64.54 510.48l0 -463.16c0,-31 46.48,-56.14 103.83,-56.14l382.81 0c57.34,0 103.85,25.13 103.85,56.14l0 463.16c0,31.02 -46.5,56.14 -103.85,56.14l-382.81 0c-57.34,0 -103.83,-25.13 -103.83,-56.14z"/>
   </g>
  </g>
  <path class="fil2" d="M23.74 59.63l200.61 58.12c11.79,3.25 28.98,-4.91 40.96,-8.31 19.01,-5.39 63.81,-15.82 78.72,-23.25 -27.43,-4.41 -55,-7.82 -82.54,-11.76 -4.91,-0.7 -15.37,-2.79 -19.97,-2.32 -5.96,0.61 -11.96,3.81 -19.21,0.5 -14.89,-6.82 -10.1,-25.13 4.17,-27.92 9.68,-1.89 11.41,1.89 18.4,3.76 5.47,1.47 15.19,2.26 21.31,3.11l105.32 14.59c7.18,0.92 9.1,0.75 13.73,4.61 0.35,0.3 1.4,1.29 1.71,1.56 0.24,0.22 0.69,0.62 0.89,0.8 0.2,0.18 0.58,0.56 0.91,0.8l50.01 -14.27c-4.48,-2.7 -200.42,-59.26 -206.61,-59.66 -8,-0.51 -160.47,45.26 -196.05,55.02 -4.45,1.22 -8.8,1.87 -12.35,4.6zm347.42 24.24l0.02 88.33c-0.74,9.61 -3.05,5.61 -3.4,12.2 -0.31,5.75 2.71,6.26 5.13,10.5l-7.51 41.41 21.8 -0.05c-0.82,-5.85 -7.78,-38.37 -6.69,-42.18 1.41,-4.98 5.64,-4.04 4.14,-11.81 -5.45,-28.37 0.51,-87.69 -1.87,-102.95 -1.45,-9.26 -17.39,-8.05 -25.75,-9.2l-114.61 -16.07c-6.12,-1.7 -1.47,-1 -6.52,-2.8 -11.71,-4.16 -21.11,5.24 -14.78,13.26 6.73,8.54 15.37,0.45 26.87,2.07 39.41,5.55 84.24,14.29 123.18,17.31zm-40.46 92.27c-28.28,-2.03 -69.81,6.85 -99.98,6.92 -31.87,0.07 -67.66,-6.98 -99.76,-7.3 -18.88,142.81 115.31,210.75 179.09,109.13 18.96,-30.21 23.46,-67.47 20.65,-108.75zm25.97 -83.26c-21.78,2.75 -113.44,35 -125.99,35 -12.07,0.01 -102.03,-31.49 -126.12,-35.1 0.39,11.22 -0.78,66.01 0.72,72.64 6.11,27.05 -6.4,56.66 13.45,106.42 55.56,139.31 243.17,103.24 235.85,-84.52 -0.42,-10.65 -1.48,-11.26 1.13,-20.8 1.91,-6.98 0.93,-15.76 0.93,-23.31 -0.01,-16.78 -0.04,-33.57 0.03,-50.34zm-355.45 464.92l458.75 -0.07c2.94,-19.59 1.16,-91.83 -3.61,-109.78 -8.27,-31.11 -28.77,-54.63 -47.83,-67.68 -30.08,-20.6 -51.49,-21.41 -94.25,-21.73 -26.44,-0.2 -9.2,0.69 -39.39,18.84 -64.55,38.8 -116.57,-17.35 -126.24,-18.73 -12.91,-1.84 -42.98,0.41 -54.93,3.26 -40.84,9.73 -75.53,40.77 -88.32,84.92 -5.93,20.48 -6.37,87.17 -4.16,110.98z"/>
 </g>
</svg>
